<svg width="655" height="133" viewBox="0 0 655 133" fill="none" xmlns="http://www.w3.org/2000/svg">
<path d="M205.368 102L185.88 34.8H192.984L209.592 92.88L227.064 34.8H234.936L252.408 92.88L269.016 34.8H276.12L256.632 102H248.568L231 43.632L213.432 102H205.368ZM321.281 54H327.617V102H321.281V92.592C316.865 99.632 310.401 103.152 301.889 103.152C295.041 103.152 289.185 100.72 284.321 95.856C279.521 90.992 277.121 85.04 277.121 78C277.121 70.96 279.521 65.008 284.321 60.144C289.185 55.28 295.041 52.848 301.889 52.848C310.401 52.848 316.865 56.368 321.281 63.408V54ZM288.929 91.536C292.577 95.184 297.057 97.008 302.369 97.008C307.681 97.008 312.161 95.184 315.809 91.536C319.457 87.824 321.281 83.312 321.281 78C321.281 72.688 319.457 68.208 315.809 64.56C312.161 60.848 307.681 58.992 302.369 58.992C297.057 58.992 292.577 60.848 288.929 64.56C285.281 68.208 283.457 72.688 283.457 78C283.457 83.312 285.281 87.824 288.929 91.536ZM346.025 66.576C346.025 68.752 346.985 70.48 348.905 71.76C350.825 73.04 353.161 74.032 355.913 74.736C358.665 75.44 361.417 76.24 364.169 77.136C366.921 77.968 369.257 79.408 371.177 81.456C373.097 83.44 374.057 86.064 374.057 89.328C374.057 93.424 372.425 96.752 369.161 99.312C365.961 101.872 361.801 103.152 356.681 103.152C352.073 103.152 348.137 102.128 344.873 100.08C341.673 98.032 339.433 95.376 338.153 92.112L343.529 88.944C344.425 91.44 346.025 93.424 348.329 94.896C350.697 96.304 353.481 97.008 356.681 97.008C359.817 97.008 362.441 96.4 364.553 95.184C366.665 93.904 367.721 91.952 367.721 89.328C367.721 87.152 366.761 85.424 364.841 84.144C362.921 82.864 360.585 81.872 357.833 81.168C355.081 80.464 352.329 79.696 349.577 78.864C346.825 77.968 344.489 76.528 342.569 74.544C340.649 72.496 339.689 69.84 339.689 66.576C339.689 62.672 341.225 59.408 344.297 56.784C347.433 54.16 351.369 52.848 356.105 52.848C360.009 52.848 363.433 53.744 366.377 55.536C369.321 57.264 371.497 59.632 372.905 62.64L367.625 65.712C365.769 61.232 361.929 58.992 356.105 58.992C353.353 58.992 350.985 59.664 349.001 61.008C347.017 62.288 346.025 64.144 346.025 66.576ZM408.191 60.144H394.367V89.232C394.367 91.856 394.879 93.744 395.903 94.896C396.927 95.984 398.463 96.56 400.511 96.624C402.559 96.624 405.119 96.56 408.191 96.432V102C401.471 103.024 396.415 102.544 393.023 100.56C389.695 98.576 388.031 94.8 388.031 89.232V60.144H377.951V54H388.031V42.48L394.367 40.56V54H408.191V60.144ZM438.021 52.848C445.125 52.848 450.853 55.376 455.205 60.432C459.621 65.424 461.829 71.344 461.829 78.192C461.829 78.896 461.765 79.888 461.637 81.168H419.493C420.133 86.032 422.181 89.904 425.637 92.784C429.157 95.6 433.477 97.008 438.597 97.008C442.245 97.008 445.381 96.272 448.005 94.8C450.693 93.264 452.709 91.28 454.053 88.848L459.621 92.112C457.509 95.504 454.629 98.192 450.981 100.176C447.333 102.16 443.173 103.152 438.501 103.152C430.949 103.152 424.805 100.784 420.069 96.048C415.333 91.312 412.965 85.296 412.965 78C412.965 70.832 415.301 64.848 419.973 60.048C424.645 55.248 430.661 52.848 438.021 52.848ZM438.021 58.992C433.029 58.992 428.837 60.496 425.445 63.504C422.117 66.448 420.133 70.288 419.493 75.024H455.301C454.661 69.968 452.709 66.032 449.445 63.216C446.181 60.4 442.373 58.992 438.021 58.992Z" fill="white"/>
<path d="M511.6 41.136H480.4V65.904H510.16V72.24H480.4V102H473.68V34.8H511.6V41.136ZM528.462 61.968C531.406 56.144 536.462 53.232 543.63 53.232V59.376C539.278 59.376 535.662 60.656 532.782 63.216C529.902 65.776 528.462 69.808 528.462 75.312V102H522.126V54H528.462V61.968ZM571.584 52.848C578.688 52.848 584.416 55.376 588.768 60.432C593.184 65.424 595.392 71.344 595.392 78.192C595.392 78.896 595.328 79.888 595.2 81.168H553.056C553.696 86.032 555.744 89.904 559.2 92.784C562.72 95.6 567.04 97.008 572.16 97.008C575.808 97.008 578.944 96.272 581.568 94.8C584.256 93.264 586.272 91.28 587.616 88.848L593.184 92.112C591.072 95.504 588.192 98.192 584.544 100.176C580.896 102.16 576.736 103.152 572.064 103.152C564.512 103.152 558.368 100.784 553.632 96.048C548.896 91.312 546.528 85.296 546.528 78C546.528 70.832 548.864 64.848 553.536 60.048C558.208 55.248 564.224 52.848 571.584 52.848ZM571.584 58.992C566.592 58.992 562.4 60.496 559.008 63.504C555.68 66.448 553.696 70.288 553.056 75.024H588.864C588.224 69.968 586.272 66.032 583.008 63.216C579.744 60.4 575.936 58.992 571.584 58.992ZM627.646 52.848C634.75 52.848 640.478 55.376 644.83 60.432C649.246 65.424 651.454 71.344 651.454 78.192C651.454 78.896 651.39 79.888 651.262 81.168H609.118C609.758 86.032 611.806 89.904 615.262 92.784C618.782 95.6 623.102 97.008 628.222 97.008C631.87 97.008 635.006 96.272 637.63 94.8C640.318 93.264 642.334 91.28 643.678 88.848L649.246 92.112C647.134 95.504 644.254 98.192 640.606 100.176C636.958 102.16 632.798 103.152 628.126 103.152C620.574 103.152 614.43 100.784 609.694 96.048C604.958 91.312 602.59 85.296 602.59 78C602.59 70.832 604.926 64.848 609.598 60.048C614.27 55.248 620.286 52.848 627.646 52.848ZM627.646 58.992C622.654 58.992 618.462 60.496 615.07 63.504C611.742 66.448 609.758 70.288 609.118 75.024H644.926C644.286 69.968 642.334 66.032 639.07 63.216C635.806 60.4 631.998 58.992 627.646 58.992Z" fill="#1D9100"/>
<path d="M82.4445 1.31444C83.2165 2.01032 83.8341 3.1701 83.8341 4.02062C83.8341 5.87629 84.2201 5.87629 101.281 2.70618C109.309 1.23711 116.875 3.69549e-06 118.032 3.69549e-06C121.506 3.69549e-06 124.44 3.47939 125.135 8.42785C125.443 10.6701 125.521 12.6031 125.443 12.7578C125.289 12.9124 108.306 16.0825 87.7711 19.8712L50.4848 26.6753L88.0027 26.9073L125.521 27.0619V29.3815C125.521 30.6186 124.285 45.3094 122.819 61.9331C121.275 78.6342 120.194 92.5517 120.271 92.9383C120.734 94.2528 130.461 87.1394 136.791 80.8765C145.746 71.83 148.062 65.8764 144.897 59.6908C142.967 55.8249 138.876 52.964 132.7 51.031C128.84 49.7939 128.223 49.4073 128.454 47.8609C128.531 46.8558 128.84 45.9279 129.072 45.696C129.766 44.9228 142.967 47.0104 147.445 48.6341C157.017 51.9589 161.031 56.2888 161.031 63.0929C161.031 69.1239 157.635 75.1548 150.378 82.1136C142.581 89.5363 134.784 94.6394 120.503 101.675C101.589 111.031 84.4516 116.521 62.9908 120.387C49.6356 122.706 28.0976 123.248 20.1463 121.469C9.57024 119.072 3.39445 115.516 0.692548 110.258C-0.465412 107.938 -0.465412 107.938 3.00847 111.108C5.47878 113.351 8.02629 114.82 11.809 115.98C16.9812 117.603 35.5085 119.846 36.4349 118.918C36.8209 118.531 30.6451 45.3867 29.3328 34.5619L28.8696 30.7733L25.1641 31.3145C21.0726 31.8557 20.9954 31.7784 20.1463 26.1341C19.5287 21.8042 21.0726 18.4021 24.1605 17.165C25.3185 16.7011 32.4206 15.3093 39.8316 13.9949C47.2425 12.6031 54.2675 11.366 55.5026 11.1341C57.2782 10.7475 57.587 10.2835 57.587 8.19588C57.587 6.7268 58.2045 5.10311 58.9765 4.40724C60.2117 3.24744 74.03 0.231961 78.739 0.0773218C79.9742 2.06912e-06 81.6725 0.541242 82.4445 1.31444ZM118.882 109.949C117.183 117.449 114.095 124.794 111.702 127.114C109.772 128.969 108.306 129.433 101.898 130.284C73.7984 134.15 45.9302 133.84 39.5228 129.665C36.4349 127.578 37.1297 126.804 41.9931 126.804C54.4219 126.804 77.0407 122.629 92.6346 117.449C100.817 114.743 116.257 107.706 118.187 105.851C119.731 104.304 119.962 105.387 118.882 109.949Z" fill="#1D9100"/>
<path d="M56.918 57.7755C57.3943 59.7999 62.5743 84.6281 62.5743 85.1044C62.5743 85.2235 64.8964 85.283 67.7543 85.2235L72.9343 85.0448L75.0777 76.8879C76.209 72.3628 77.3402 68.6713 77.5189 68.6713C77.757 68.6713 78.0547 69.8621 78.2333 71.3506C78.4715 72.8391 79.0669 76.4711 79.6028 79.3885L80.615 84.7471H86.0331H91.4512L96.0954 70.8743C98.5961 63.2532 100.68 56.8229 100.68 56.5847C100.68 56.3465 98.8938 56.1679 96.6908 56.287L92.642 56.4656L89.665 66.1111C88.0575 71.4102 86.5094 75.578 86.3308 75.3398C86.1522 75.1017 85.3782 70.6957 84.6041 65.5157L83.2347 56.1084L78.4715 56.287L73.7678 56.4656L71.3267 66.2897C70.0168 71.7079 68.7665 75.6971 68.5879 75.2207C68.4092 74.7444 67.4566 70.2789 66.4444 65.3966L64.6582 56.4656L60.5499 56.287L56.5012 56.1084L56.918 57.7755Z" fill="white"/>
</svg>
